<mxfile host="app.diagrams.net" modified="2024-02-02T02:30:49.373Z" agent="Mozilla/5.0 (X11; CrOS x86_64 14541.0.0) AppleWebKit/537.36 (KHTML, like Gecko) Chrome/120.0.0.0 Safari/537.36" version="23.0.2" etag="042MyFqNo2qPD5NfMQfv" type="github">
  <diagram name="Page-1" id="sro4XjNO_-2DhSH7OH-7">
    <mxGraphModel>
      <root>
        <mxCell id="0" />
        <mxCell id="1" parent="0" />
      </root>
    </mxGraphModel>
  </diagram>
</mxfile>
